<svg viewBox="37.768 136.4 400 215" xmlns="http://www.w3.org/2000/svg" xmlns:bx="https://boxy-svg.com">
	<path style="paint-order:stroke;fill:none;stroke-linecap:round;stroke-linejoin:round;stroke-width:7px;stroke:#fff" d="M98.308 217.952c-11.698 1.426-20.544-.16-33.296 2.003-8.346 1.416-16.626 7.266-13.768 9.262 8.217 5.74 16.798 11.264 22.278 17.331 3.389 3.752 5.569 4.806 8.315 8.876 3.68 5.454 6.212 9.42 8.21 12.846 7.642 13.102 15.297 25.541 22.966 37.318 4.496 6.905 22.141 16.751 49.932 22.525 9.952 2.068 18.412 8.444 30.871 12.012 12.155 3.481 25.039 2.164 37.653 1.929 21.518-.402 51.296-1.46 63.471-4.833 54.44-15.082 72.921-26.787 95.671-46.621 13.708-11.951 20.653-18.845 31.707-29.484 1.596-1.536 4.881-7.861-1.079-8.311-10.013-.756-8.275-9.661-26.066-16.291"/>
	<path style="fill:none;stroke-linecap:round;stroke-linejoin:round;stroke-width:7px;stroke:#fff" d="M375.526 263.984s-.43-4.436.278-7.257c3.49-13.904 23.701-22.21 22.661-36.55-.209-2.876-5.914-6.995-10.595-10.496-2.969-2.221-4.778-4.193-6.904-5.44-2.571-1.508-6.043-6.633-8.405-8.734M101.813 243.57l-2.754-26.286c-1.752-8.428-5.341-16.689-10.765-24.783-1.376-2.053-3.686-5.489-1.502-7.26 5.153-4.178 7.528 1.481 20.51 3.751 11.02 1.927 19.118 6.426 32.813-6.004"/>
	<path style="fill:none;stroke-linecap:round;stroke-linejoin:round;stroke-width:7px;stroke:#fff" d="m142.117 229.078 2.187-22.456 1.819-10.839c-.835-7.594-5.508-13.769-10.765-23.532-1.039-1.929 1.456-4.242 5.508-5.758 16.935-6.336 33.679-6.586 51.875-6.759m-6.814 54.574c4.172-3.755 7.009-8.845 8.511-15.271 3.001-12.839 2.834-26.024-.5-39.553-1.079-4.378 2.869-6.584 10.765-8.762 13.073-3.606 29.094-.045 35.954 3.184"/>
	<path style="fill:none;stroke-linecap:round;stroke-linejoin:round;stroke-width:7px;stroke:#fff" d="M229.236 207.549c2.586-7.594 4.84-15.855 6.759-24.784.808-3.759 1.893-7.847 3.254-12.266 2.505-8.135 2.505-16.646 0-25.535-.395-1.403 1.023-1.737 4.256-1.001 7.009 1.596 16.031 1.338 21.279 3.504 7.841 3.237 16.319 7.576 24.783 5.507 8.73-2.134 20.933-1.535 28.741 2.037 10.075 4.609 23.314 18.504 30.089 22.998 3.24 2.15 5.884 5.55 12.768 8.511 10.075 4.333 12.861 8.077 13.017 19.026.13 9.093-13.645 16.459-19.113 20.183-2.178 1.484-3.404 2.128-8.077 3.165"/>
	<path style="fill:none;stroke-linecap:round;stroke-linejoin:round;stroke-width:7px;stroke:#fff" d="M271.793 207.549c4.34-4.256 8.011-9.179 11.015-14.77 4.435-8.255 5.441-17.268 7.261-27.037.781-4.193-.143-7.374-1.008-11.525m26.041 65.348c.417-2.42 1.539-6.9 2.504-9.512 1.761-4.767 5.887-9.24 10.013-13.769 6.277-6.89 10.366-10.562 17.524-19.777"/>
	<circle style="fill:#fff" cx="196.184" cy="252.456" r="11.075"/>
	<circle style="fill:#fff" cx="284.78" cy="252.456" r="11.075"/>
	<path d="M218.634 300.863s10.637-16.317 22.037-16.417c11.4-.1 20.41 16.417 20.41 16.417 4.717 7.956 2.359 11.934-7.074 11.934h-28.299c-9.433 0-11.791-3.978-7.074-11.934Z" style="stroke-linecap:round;stroke-linejoin:round;stroke-width:3px;fill:none;transform-box:fill-box;transform-origin:50% 50%;stroke:#fff" transform="rotate(180 0 0)"/>
	<path style="stroke-width:2px;fill:none;stroke:#fff" d="M225.31 305.265c.016-2.853 6.635-6.572 13.734-6.652 6.933-.078 14.415 3.52 14.432 6.652"/>
	<path d="M182.014 289.599q.165.623-.086 1.281-.278.732-.965 1.217-.756.535-1.737.577-1.071.046-2.049-.511-1.059-.603-1.67-1.718-.656-1.198-.592-2.615.069-1.514.937-2.818.922-1.384 2.471-2.122 1.637-.779 3.494-.607 1.955.181 3.585 1.363 1.711 1.239 2.575 3.223.903 2.076.623 4.372-.293 2.396-1.789 4.354-1.557 2.038-3.977 3.027-2.512 1.028-5.25.638-2.837-.403-5.122-2.214-2.364-1.874-3.479-4.73-.991-2.536-.756-5.286" style="fill:none;stroke-linecap:round;stroke-linejoin:round;stroke-width:2px;transform-box:fill-box;transform-origin:50% 50%;stroke:#fff" transform="rotate(147 2.073 -1.41)" bx:shape="spiral 180.111 289.125 0 12.067 104 640 1@e3caf317"/>
	<path d="M182.014 289.599q.165.623-.086 1.281-.278.732-.965 1.217-.756.535-1.737.577-1.071.046-2.049-.511-1.059-.603-1.67-1.718-.656-1.198-.592-2.615.069-1.514.937-2.818.922-1.384 2.471-2.122 1.637-.779 3.494-.607 1.955.181 3.585 1.363 1.711 1.239 2.575 3.223.903 2.076.623 4.372-.293 2.396-1.789 4.354-1.557 2.038-3.977 3.027-2.512 1.028-5.25.638-2.837-.403-5.122-2.214-2.364-1.874-3.479-4.73-.991-2.536-.756-5.286" style="fill:none;stroke-linecap:round;stroke-linejoin:round;stroke-width:2px;transform-origin:178.424px 290.81px;stroke:#fff" transform="rotate(147 60.608 15.89)" bx:shape="spiral 180.111 289.125 0 12.067 104 640 1@e3caf317"/>
  </svg>
  